<svg width="56" height="56" viewBox="0 0 56 56" fill="none" xmlns="http://www.w3.org/2000/svg">
<circle cx="28" cy="28" r="28" fill="#BAEFC2"/>
<path d="M56 28C56 33.5379 54.3578 38.9514 51.2812 43.556C48.2045 48.1605 43.8315 51.7494 38.7151 53.8686C33.5988 55.9879 27.9689 56.5424 22.5375 55.462C17.106 54.3816 12.1169 51.7149 8.20101 47.799C4.28514 43.8831 1.6184 38.894 0.538012 33.4625C-0.542374 28.0311 0.0121194 22.4012 2.13137 17.2849C4.25063 12.1685 7.83946 7.79553 12.444 4.71885C17.0486 1.64217 22.4621 -6.60385e-08 28 0V28H56Z" fill="#EF9666"/>
<path d="M56 28C56 35.4261 53.05 42.548 47.799 47.799C42.548 53.05 35.4261 56 28 56C20.5739 56 13.452 53.05 8.20101 47.799C2.94999 42.548 1.1213e-06 35.4261 0 28L28 28H56Z" fill="#4B5FCF"/>
<path d="M56 28C56 31.677 55.2758 35.318 53.8686 38.7151C52.4615 42.1123 50.399 45.199 47.799 47.799C45.1989 50.399 42.1123 52.4615 38.7151 53.8686C35.318 55.2758 31.677 56 28 56L28 28H56Z" fill="#C38DF8"/>
</svg>
